# xmcd CD database file
#
# Track frame offsets:
#	150
#	39347
#	61175
#	89555
#	116622
#	147242
#	191500
#	219165
#	247627
#	272685
#	302042
#	338037
#
# Disc length: 4795 seconds
#
# Revision: 5
# Processed by: cddbd v1.5.2PL0 Copyright (c) Steve Scherf et al.
# Submitted via: CDex 1.51
#
DISCID=9f12b90c
DTITLE=globe - globe decade - single history 1995-2004 (Disc-3)
DYEAR=2005
DGENRE=J-Pop
TTITLE0=DON'T LOOK BACK
TTITLE1=like a prayer
TTITLE2=garden
TTITLE3=try this shoot
TTITLE4=Stop! In the Name of Love
TTITLE5=genesis of next
TTITLE6=Many Classic Moments
TTITLE7=OVER THE RAINBOW
TTITLE8=INSPIRED FROM RED and BLUE
TTITLE9=seize the light
TTITLE10=get it on now feat. KEIKO
TTITLE11=CCCD DATA
EXTD=YEAR: 2005
EXTT0=
EXTT1=
EXTT2=
EXTT3=
EXTT4=
EXTT5=
EXTT6=
EXTT7=
EXTT8=
EXTT9=
EXTT10=
EXTT11=
PLAYORDER=
